<svg xmlns="http://www.w3.org/2000/svg" viewBox="0 0 1200 900" role="img" aria-label="Pastel cherry blossom branches">
  <defs>
    <radialGradient id="sky" cx="62%" cy="34%" r="72%">
      <stop offset="0" stop-color="#fff7fc"/>
      <stop offset="0.46" stop-color="#edf8ff"/>
      <stop offset="1" stop-color="#ffeef6"/>
    </radialGradient>
    <radialGradient id="bloom" cx="50%" cy="50%" r="50%">
      <stop offset="0" stop-color="#ffffff"/>
      <stop offset="0.5" stop-color="#ffd2e4"/>
      <stop offset="1" stop-color="#f4a5c5"/>
    </radialGradient>
    <filter id="soft" x="-20%" y="-20%" width="140%" height="140%">
      <feGaussianBlur stdDeviation="1.8"/>
    </filter>
  </defs>
  <rect width="1200" height="900" fill="url(#sky)"/>
  <g opacity=".42" filter="url(#soft)">
    <circle cx="870" cy="170" r="190" fill="#f6b2ce"/>
    <circle cx="980" cy="430" r="250" fill="#bfe9f7"/>
    <circle cx="720" cy="690" r="210" fill="#f7dca0"/>
  </g>
  <g fill="none" stroke-linecap="round">
    <path d="M1190 820 C1000 680 870 520 710 330 C620 220 520 140 390 80" stroke="#8d5b5f" stroke-opacity=".33" stroke-width="30"/>
    <path d="M1120 720 C950 650 790 600 610 530" stroke="#8d5b5f" stroke-opacity=".25" stroke-width="18"/>
    <path d="M1080 560 C920 500 820 430 700 310" stroke="#8d5b5f" stroke-opacity=".23" stroke-width="16"/>
    <path d="M940 390 C800 370 710 330 590 220" stroke="#8d5b5f" stroke-opacity=".22" stroke-width="13"/>
  </g>
  <g>
    <script type="application/ecmascript"><![CDATA[]]></script>
    <circle cx="385" cy="82" r="18" fill="url(#bloom)" opacity=".78"/>
    <circle cx="455" cy="112" r="14" fill="url(#bloom)" opacity=".62"/>
    <circle cx="532" cy="158" r="22" fill="url(#bloom)" opacity=".72"/>
    <circle cx="602" cy="222" r="16" fill="url(#bloom)" opacity=".66"/>
    <circle cx="670" cy="290" r="24" fill="url(#bloom)" opacity=".82"/>
    <circle cx="728" cy="335" r="15" fill="url(#bloom)" opacity=".66"/>
    <circle cx="786" cy="382" r="26" fill="url(#bloom)" opacity=".74"/>
    <circle cx="862" cy="448" r="17" fill="url(#bloom)" opacity=".7"/>
    <circle cx="942" cy="512" r="25" fill="url(#bloom)" opacity=".78"/>
    <circle cx="1008" cy="612" r="19" fill="url(#bloom)" opacity=".7"/>
    <circle cx="1090" cy="724" r="27" fill="url(#bloom)" opacity=".8"/>
    <circle cx="632" cy="532" r="19" fill="url(#bloom)" opacity=".62"/>
    <circle cx="718" cy="564" r="14" fill="url(#bloom)" opacity=".58"/>
    <circle cx="820" cy="604" r="23" fill="url(#bloom)" opacity=".7"/>
    <circle cx="912" cy="646" r="16" fill="url(#bloom)" opacity=".65"/>
    <circle cx="735" cy="222" r="12" fill="#fff4f9" opacity=".75"/>
    <circle cx="910" cy="320" r="13" fill="#fff4f9" opacity=".72"/>
    <circle cx="1040" cy="482" r="11" fill="#fff4f9" opacity=".68"/>
  </g>
</svg>
